<?xml version="1.0" encoding="UTF-8" standalone="no"?>
<svg
   version="1.1"
   id="Layer_1"
   x="0px"
   y="0px"
   width="100%"
   viewBox="0 0 512 512"
   enable-background="new 0 0 512 512"
   xml:space="preserve"
   sodipodi:docname="file.svg"
   inkscape:version="1.2.2 (b0a8486541, 2022-12-01)"
   xmlns:inkscape="http://www.inkscape.org/namespaces/inkscape"
   xmlns:sodipodi="http://sodipodi.sourceforge.net/DTD/sodipodi-0.dtd"
   xmlns="http://www.w3.org/2000/svg"
   xmlns:svg="http://www.w3.org/2000/svg"><defs
   id="defs21" /><sodipodi:namedview
   id="namedview19"
   pagecolor="#ffffff"
   bordercolor="#000000"
   borderopacity="0.25"
   inkscape:showpageshadow="2"
   inkscape:pageopacity="0.0"
   inkscape:pagecheckerboard="0"
   inkscape:deskcolor="#d1d1d1"
   showgrid="false"
   inkscape:zoom="1.1171875"
   inkscape:cx="250.62937"
   inkscape:cy="256"
   inkscape:window-width="1536"
   inkscape:window-height="779"
   inkscape:window-x="0"
   inkscape:window-y="0"
   inkscape:window-maximized="1"
   inkscape:current-layer="Layer_1" />
<path
   fill="#3B8CA8"
   opacity="1.000000"
   stroke="none"
   d=" M298.000000,513.000000   C198.690781,513.000000 99.881554,513.000000 1.036167,513.000000   C1.036167,342.399078 1.036167,171.798172 1.036167,1.098622   C171.559235,1.098622 342.118561,1.098622 512.838928,1.098622   C512.838928,171.666550 512.838928,342.333252 512.838928,513.000000   C441.464813,513.000000 369.982391,513.000000 298.000000,513.000000  M177.468872,345.047699   C190.175980,338.873169 196.758621,328.435974 197.861557,314.635132   C199.409668,295.263733 192.961823,280.138519 173.243652,272.514435   C174.487198,271.734161 175.022156,271.346619 175.601059,271.042877   C188.442261,264.305603 192.736603,253.127762 191.956161,239.384964   C191.189743,225.889603 185.769318,215.025696 172.833679,209.648956   C166.310379,206.937546 159.152863,204.542450 152.199753,204.292130   C127.250900,203.393875 102.266907,203.470322 77.295959,203.200409   C77.015549,203.197388 76.731941,203.489700 76.302322,203.724884   C76.302322,252.987625 76.302322,302.317810 76.302322,351.379547   C101.917084,351.379547 127.061089,351.865723 152.167175,351.103302   C160.424286,350.852570 168.583221,347.369171 177.468872,345.047699  M369.499817,202.998932   C353.088226,202.998932 336.676605,202.998932 320.180542,202.998932   C320.180542,253.021118 320.180542,302.222748 320.180542,351.678009   C321.474854,351.803864 322.436584,351.979309 323.398254,351.978851   C345.545532,351.968842 367.701691,352.290405 389.835510,351.732056   C398.056000,351.524689 406.401550,349.904144 414.373413,347.753967   C425.410156,344.777100 434.165192,338.288696 438.804321,327.347778   C448.152344,305.301514 439.834503,283.320312 418.344788,273.029419   C418.130157,272.926636 418.033051,272.578491 417.693390,272.056396   C426.617493,267.847839 433.065125,261.359283 435.002441,251.474243   C438.466339,233.800079 434.482910,212.186096 407.649994,206.471802   C395.567993,203.898819 382.901154,204.071854 369.499817,202.998932  M300.033844,197.028748   C287.558807,197.346207 275.001099,196.873154 262.628082,198.166534   C244.101242,200.103165 234.556870,211.206711 233.813644,229.792633   C233.683090,233.057419 233.795105,236.331940 233.795105,240.105270   C227.406296,240.105270 221.974426,240.105270 216.396301,240.105270   C216.396301,248.977692 216.396301,257.327759 216.396301,266.206604   C222.264404,266.206604 227.679352,266.206604 233.678970,266.206604   C233.678970,270.695374 233.678757,274.659637 233.679016,278.623901   C233.680466,301.447266 233.628891,324.270996 233.795807,347.093140   C233.807709,348.720947 235.379776,351.719482 236.297729,351.747528   C247.058136,352.076477 257.832214,351.958496 269.226257,351.958496   C269.226257,323.088379 269.226257,294.859436 269.226257,265.872925   C279.703796,265.872925 289.566620,265.872925 299.413757,265.872925   C299.413757,256.870850 299.413757,248.641006 299.413757,239.847321   C289.252258,239.847321 279.502472,239.847321 269.879974,239.847321   C267.306244,225.614532 271.073517,221.023911 284.780273,221.003143   C290.534149,220.994431 296.287994,221.001709 302.510498,221.001709   C302.510498,213.272919 302.558411,206.306763 302.441376,199.343369   C302.428772,198.591263 301.459961,197.855209 300.033844,197.028748  z"
   id="path2"
   style="fill:#d7c87a;fill-opacity:1" />
<path
   fill="#D8C87A"
   opacity="1.000000"
   stroke="none"
   d=" M177.127960,345.205811   C168.583221,347.369171 160.424286,350.852570 152.167175,351.103302   C127.061089,351.865723 101.917084,351.379547 76.302322,351.379547   C76.302322,302.317810 76.302322,252.987625 76.302322,203.724884   C76.731941,203.489700 77.015549,203.197388 77.295959,203.200409   C102.266907,203.470322 127.250900,203.393875 152.199753,204.292130   C159.152863,204.542450 166.310379,206.937546 172.833679,209.648956   C185.769318,215.025696 191.189743,225.889603 191.956161,239.384964   C192.736603,253.127762 188.442261,264.305603 175.601059,271.042877   C175.022156,271.346619 174.487198,271.734161 173.243652,272.514435   C192.961823,280.138519 199.409668,295.263733 197.861557,314.635132   C196.758621,328.435974 190.175980,338.873169 177.127960,345.205811  M114.038872,313.483032   C114.038872,317.553772 114.038872,321.624512 114.038872,326.492737   C125.235565,325.961334 135.587784,326.168671 145.722702,324.784637   C155.103226,323.503632 159.801163,316.440521 159.835220,306.464172   C159.868515,296.711517 155.283112,289.549774 146.210632,288.301147   C135.802139,286.868652 125.169327,287.066193 114.038872,286.526794   C114.038872,295.945984 114.038872,304.216766 114.038872,313.483032  M151.561539,236.200882   C149.293335,234.335571 147.308395,231.638977 144.706680,230.752396   C134.762009,227.363647 124.510323,229.462494 114.436371,229.109695   C114.436371,240.145432 114.436371,250.354721 114.436371,260.997040   C121.774178,260.997040 128.723053,261.071136 135.669830,260.981812   C150.694611,260.788666 157.286346,250.969101 151.561539,236.200882  z"
   id="path4"
   style="fill:#3b8ca8;fill-opacity:1" />
<path
   fill="#D8C87A"
   opacity="1.000000"
   stroke="none"
   d=" M369.999756,202.998932   C382.901154,204.071854 395.567993,203.898819 407.649994,206.471802   C434.482910,212.186096 438.466339,233.800079 435.002441,251.474243   C433.065125,261.359283 426.617493,267.847839 417.693390,272.056396   C418.033051,272.578491 418.130157,272.926636 418.344788,273.029419   C439.834503,283.320312 448.152344,305.301514 438.804321,327.347778   C434.165192,338.288696 425.410156,344.777100 414.373413,347.753967   C406.401550,349.904144 398.056000,351.524689 389.835510,351.732056   C367.701691,352.290405 345.545532,351.968842 323.398254,351.978851   C322.436584,351.979309 321.474854,351.803864 320.180542,351.678009   C320.180542,302.222748 320.180542,253.021118 320.180542,202.998932   C336.676605,202.998932 353.088226,202.998932 369.999756,202.998932  M390.146881,324.915619   C400.052521,321.519409 404.187225,315.661774 403.827209,305.534607   C403.496735,296.237030 398.998627,289.490631 390.252380,288.307953   C379.826263,286.898132 369.186890,287.065613 358.509125,286.543365   C358.509125,300.358185 358.509125,313.029785 358.509125,326.434540   C369.111542,325.963226 379.219299,325.513916 390.146881,324.915619  M364.630096,228.997650   C362.553406,228.997650 360.476746,228.997650 358.436829,228.997650   C358.436829,240.112411 358.436829,250.338074 358.436829,260.759369   C367.122070,260.759369 375.441162,261.182526 383.693970,260.624878   C390.243591,260.182343 395.375336,256.926880 397.104553,249.890488   C399.930420,238.391846 393.949249,229.936523 382.075470,229.137146   C376.606232,228.768967 371.094971,229.024765 364.630096,228.997650  z"
   id="path6"
   style="fill:#1d5e5a;fill-opacity:1" />
<path
   fill="#D7C87A"
   opacity="1.000000"
   stroke="none"
   d=" M300.484253,197.070221   C301.459961,197.855209 302.428772,198.591263 302.441376,199.343369   C302.558411,206.306763 302.510498,213.272919 302.510498,221.001709   C296.287994,221.001709 290.534149,220.994431 284.780273,221.003143   C271.073517,221.023911 267.306244,225.614532 269.879974,239.847321   C279.502472,239.847321 289.252258,239.847321 299.413757,239.847321   C299.413757,248.641006 299.413757,256.870850 299.413757,265.872925   C289.566620,265.872925 279.703796,265.872925 269.226257,265.872925   C269.226257,294.859436 269.226257,323.088379 269.226257,351.958496   C257.832214,351.958496 247.058136,352.076477 236.297729,351.747528   C235.379776,351.719482 233.807709,348.720947 233.795807,347.093140   C233.628891,324.270996 233.680466,301.447266 233.679016,278.623901   C233.678757,274.659637 233.678970,270.695374 233.678970,266.206604   C227.679352,266.206604 222.264404,266.206604 216.396301,266.206604   C216.396301,257.327759 216.396301,248.977692 216.396301,240.105270   C221.974426,240.105270 227.406296,240.105270 233.795105,240.105270   C233.795105,236.331940 233.683090,233.057419 233.813644,229.792633   C234.556870,211.206711 244.101242,200.103165 262.628082,198.166534   C275.001099,196.873154 287.558807,197.346207 300.484253,197.070221  z"
   id="path8"
   style="fill:#1d5e5a;fill-opacity:1" />
<path
   fill="#3C8CA8"
   opacity="1.000000"
   stroke="none"
   d=" M114.038872,312.985291   C114.038872,304.216766 114.038872,295.945984 114.038872,286.526794   C125.169327,287.066193 135.802139,286.868652 146.210632,288.301147   C155.283112,289.549774 159.868515,296.711517 159.835220,306.464172   C159.801163,316.440521 155.103226,323.503632 145.722702,324.784637   C135.587784,326.168671 125.235565,325.961334 114.038872,326.492737   C114.038872,321.624512 114.038872,317.553772 114.038872,312.985291  z"
   id="path10"
   style="fill:#d7c87a;fill-opacity:1" />
<path
   fill="#3C8CA8"
   opacity="1.000000"
   stroke="none"
   d=" M151.741150,236.537842   C157.286346,250.969101 150.694611,260.788666 135.669830,260.981812   C128.723053,261.071136 121.774178,260.997040 114.436371,260.997040   C114.436371,250.354721 114.436371,240.145432 114.436371,229.109695   C124.510323,229.462494 134.762009,227.363647 144.706680,230.752396   C147.308395,231.638977 149.293335,234.335571 151.741150,236.537842  z"
   id="path12"
   style="fill:#d7c87a;fill-opacity:1" />
<path
   fill="#3C8CA8"
   opacity="1.000000"
   stroke="none"
   d=" M389.737000,324.990112   C379.219299,325.513916 369.111542,325.963226 358.509125,326.434540   C358.509125,313.029785 358.509125,300.358185 358.509125,286.543365   C369.186890,287.065613 379.826263,286.898132 390.252380,288.307953   C398.998627,289.490631 403.496735,296.237030 403.827209,305.534607   C404.187225,315.661774 400.052521,321.519409 389.737000,324.990112  z"
   id="path14"
   style="fill:#d7c87a;fill-opacity:1" />
<path
   fill="#3C8CA8"
   opacity="1.000000"
   stroke="none"
   d=" M365.116455,228.997620   C371.094971,229.024765 376.606232,228.768967 382.075470,229.137146   C393.949249,229.936523 399.930420,238.391846 397.104553,249.890488   C395.375336,256.926880 390.243591,260.182343 383.693970,260.624878   C375.441162,261.182526 367.122070,260.759369 358.436829,260.759369   C358.436829,250.338074 358.436829,240.112411 358.436829,228.997650   C360.476746,228.997650 362.553406,228.997650 365.116455,228.997620  z"
   id="path16"
   style="fill:#d7c87a;fill-opacity:1" />
</svg>
